<?xml version="1.0" encoding="UTF-8"?>
<svg id="Ebene_2" data-name="Ebene 2" xmlns="http://www.w3.org/2000/svg" viewBox="0 0 287.43 259.44">
  <defs>
    <style>
      .cls-1, .cls-2 {
        stroke-width: 20px;
      }

      .cls-1, .cls-2, .cls-3, .cls-4, .cls-5 {
        stroke: #1d1d1b;
      }

      .cls-1, .cls-2, .cls-3, .cls-5 {
        stroke-linejoin: round;
      }

      .cls-1, .cls-3, .cls-4, .cls-5 {
        stroke-linecap: round;
      }

      .cls-1, .cls-6 {
        fill: #ededed;
      }

      .cls-2, .cls-3, .cls-4, .cls-5 {
        fill: none;
      }

      .cls-7 {
        fill: #1d1d1b;
      }

      .cls-3 {
        stroke-width: 16px;
      }

      .cls-4 {
        stroke-miterlimit: 10;
      }

      .cls-4, .cls-5 {
        stroke-width: 14px;
      }
    </style>
  </defs>
  <g id="Ebene_7" data-name="Ebene 7">
    <path class="cls-6" d="M226.16,151.44c-.56,6.16-5.74,10.99-12.05,10.99h-22.18c-6.31,0-11.49-4.83-12.05-10.99h-72.34c-.56,6.16-5.74,10.99-12.05,10.99h-22.18c-6.31,0-11.49-4.83-12.05-10.99H23.62l5.6,80.88c0,9.46,7.52,17.12,16.81,17.12h195.38c9.28,0,16.81-7.67,16.81-17.12l5.6-80.88h-37.65Z"/>
    <path class="cls-2" d="M263.81,151.44l-5.6,80.88c0,9.46-7.52,17.12-16.81,17.12h-97.69s-97.69,0-97.69,0c-9.28,0-16.81-7.67-16.81-17.12l-5.6-80.88"/>
    <path class="cls-3" d="M36.01,151.44h-16.67c-.76,0-4.77-.08-8.02-3.32-2.05-2.05-3.32-4.89-3.32-8.02v-24.06h135.71"/>
    <path class="cls-3" d="M251.42,151.44c7.22,0,9.45,0,16.67,0,.76,0,4.77-.08,8.02-3.32,2.05-2.05,3.32-4.89,3.32-8.02v-24.06s-135.71,0-135.71,0"/>
    <path class="cls-5" d="M183.43,116.04h39.19c1.99,0,3.6,1.61,3.6,3.6v30.68c0,6.68-5.42,12.11-12.11,12.11h-22.18c-6.68,0-12.11-5.42-12.11-12.11v-30.68c0-1.99,1.61-3.6,3.6-3.6Z"/>
    <path class="cls-5" d="M64.81,116.04h39.19c1.99,0,3.6,1.61,3.6,3.6v30.68c0,6.68-5.42,12.11-12.11,12.11h-22.18c-6.68,0-12.11-5.42-12.11-12.11v-30.68c0-1.99,1.61-3.6,3.6-3.6Z"/>
    <polyline class="cls-5" points="174.49 146.62 143.71 146.62 112.94 146.62"/>
    <path class="cls-1" d="M26.4,91.66l-5.67-64.66c0-9.39,7.61-17.01,17.01-17.01h104.53s104.53,0,104.53,0c9.39,0,17.01,7.61,17.01,17.01l-5.67,64.66"/>
    <path class="cls-4" d="M124.34,198.6c9.11.09,19.62-.34,30.78-1.33s21.57-2.44,30.53-4.13"/>
  </g>
  <g id="Ebene_8" data-name="Ebene 8">
    <circle class="cls-7" cx="84.41" cy="139.24" r="8.5"/>
    <circle class="cls-7" cx="203.02" cy="139.24" r="8.5"/>
  </g>
</svg>